<?xml version="1.0" encoding="UTF-8"?>
<svg width="29px" height="29px" viewBox="0 0 29 29" version="1.1" xmlns="http://www.w3.org/2000/svg" xmlns:xlink="http://www.w3.org/1999/xlink">
    <!-- Generator: Sketch 50.2 (55047) - http://www.bohemiancoding.com/sketch -->
    <title>facebook</title>
    <desc>Created with Sketch.</desc>
    <defs></defs>
    <g id="Page-1" stroke="none" stroke-width="1" fill="none" fill-rule="evenodd">
        <g id="Artboard-2" fill="#FFFFFF">
            <path d="M27.1875,0 C28.1787109,0 29,0.821289062 29,1.8125 L29,27.1875 C29,28.1787109 28.1787109,29 27.1875,29 L19.9375,29 L19.9375,17.7285156 L23.5625,17.7285156 L24.1713867,13.5512695 L19.9375,13.5512695 L19.9375,10.2661133 C19.9375,9.07666016 20.5463867,8.39697266 21.75,8.39697266 L24.46875,8.39697266 L24.46875,4.63037109 C24.46875,4.63037109 23.2509766,4.43212891 21.4951172,4.43212891 C17.5161133,4.43212891 15.5053711,6.64111328 15.5053711,9.94042969 L15.5053711,13.5512695 L11.8803711,13.5512695 L11.8803711,17.7285156 L15.5053711,17.7285156 L15.5053711,29 L1.8125,29 C0.821289062,29 0,28.1787109 0,27.1875 L0,1.8125 C0,0.821289062 0.821289062,0 1.8125,0 L27.1875,0 Z" id="facebook"></path>
        </g>
    </g>
</svg>