<?xml version="1.0" encoding="UTF-8"?>
<svg width="29px" height="29px" viewBox="0 0 29 29" version="1.1" xmlns="http://www.w3.org/2000/svg" xmlns:xlink="http://www.w3.org/1999/xlink">
    <!-- Generator: Sketch 50.2 (55047) - http://www.bohemiancoding.com/sketch -->
    <title>instagram</title>
    <desc>Created with Sketch.</desc>
    <defs></defs>
    <g id="Page-1" stroke="none" stroke-width="1" fill="none" fill-rule="evenodd">
        <g id="Artboard-2" fill="#FFFFFF">
            <path d="M24.7661133,0 C27.1025391,0 29,1.89746094 29,4.23388672 L29,24.7661133 C29,27.1025391 27.1025391,29 24.7661133,29 L4.23388672,29 C1.89746094,29 0,27.1025391 0,24.7661133 L0,4.23388672 C0,1.89746094 1.89746094,0 4.23388672,0 L24.7661133,0 Z M25.9838867,7.25 L25.9838867,3.625 C25.9838867,3.28515625 25.7148438,3.01611328 25.375,3.01611328 L21.75,3.01611328 C21.4101562,3.01611328 21.1411133,3.28515625 21.1411133,3.625 L21.1411133,7.25 C21.1411133,7.58984375 21.4101562,7.85888672 21.75,7.85888672 L25.375,7.85888672 C25.7148438,7.85888672 25.9838867,7.58984375 25.9838867,7.25 Z M14.5,9.0625 C11.4980469,9.0625 9.0625,11.4980469 9.0625,14.5 C9.0625,17.5019531 11.4980469,19.9375 14.5,19.9375 C17.5019531,19.9375 19.9375,17.5019531 19.9375,14.5 C19.9375,11.4980469 17.5019531,9.0625 14.5,9.0625 Z M25.9838867,25.375 L25.9838867,12.6875 L22.7695312,12.6875 C22.8969727,13.2680664 22.9536133,13.8769531 22.9536133,14.5 C22.9536133,19.1728516 19.1728516,22.9536133 14.5,22.9536133 C9.82714844,22.9536133 6.04638672,19.1728516 6.04638672,14.5 C6.04638672,13.8769531 6.10302734,13.2680664 6.23046875,12.6875 L3.01611328,12.6875 L3.01611328,25.375 C3.01611328,25.7148438 3.28515625,25.9838867 3.625,25.9838867 L25.375,25.9838867 C25.7148438,25.9838867 25.9838867,25.7148438 25.9838867,25.375 Z" id="instagram"></path>
        </g>
    </g>
</svg>