<?xml version="1.0" encoding="UTF-8"?>
<svg width="29px" height="29px" viewBox="0 0 29 29" version="1.1" xmlns="http://www.w3.org/2000/svg" xmlns:xlink="http://www.w3.org/1999/xlink">
    <!-- Generator: Sketch 50.2 (55047) - http://www.bohemiancoding.com/sketch -->
    <title>Artboard 2</title>
    <desc>Created with Sketch.</desc>
    <defs></defs>
    <g id="Artboard-2" stroke="none" stroke-width="1" fill="none" fill-rule="evenodd">
        <path d="M29,5.19677734 C28.1928711,6.41455078 27.1875,7.44824219 26.0405273,8.28369141 L26.0405273,9.0625 C26.0405273,16.9213867 20.0649414,25.9838867 9.13330078,25.9838867 C5.77734375,25.9838867 2.61962891,25.2475586 0,23.5625 C0.467285156,23.6333008 0.934570312,23.6616211 1.41601562,23.6616211 C4.19140625,23.6616211 6.78271484,22.4580078 8.79345703,20.84375 C6.21630859,20.8154297 3.99316406,19.0595703 3.25683594,16.7089844 C3.625,16.7797852 3.99316406,16.8222656 4.36132812,16.8222656 C4.89941406,16.8222656 5.4375,16.7514648 5.94726562,16.6098633 C3.22851562,16.0717773 1.17529297,13.6645508 1.17529297,10.7758789 L1.17529297,10.7050781 C1.98242188,11.144043 2.88867188,11.4130859 3.86572266,11.4414062 C2.25146484,10.3652344 1.20361328,8.55273438 1.20361328,6.51367188 C1.20361328,5.40917969 1.51513672,4.50292969 2.01074219,3.625 C4.97021484,7.22167969 9.33154297,9.45898438 14.2592773,9.72802734 C14.1601562,9.30322266 14.1318359,8.82177734 14.1318359,8.35449219 C14.1318359,5.06933594 16.7797852,2.42138672 20.0649414,2.42138672 C21.7783203,2.42138672 23.3217773,3.15771484 24.4404297,4.29052734 C25.7714844,4.02148438 27.0600586,3.52587891 28.1928711,2.84619141 C27.7539062,4.23388672 26.8193359,5.40917969 25.5732422,6.14550781 C26.7910156,6.00390625 27.9238281,5.67822266 29,5.19677734 Z" id="twitter" fill="#FFFFFF"></path>
    </g>
</svg>